#!OML:ASF E:/inclinewalkrobotboard/Project1/Captureday1/Session1/subject1.ASF
:FULLY-SPECIFIED
:DEGREES
226
root 0 0 0 1.910015167153729 -10.659985379921945 0.8802415136459475
lowerback -0.23622838855459305 -1.725565054065538 -2.6734122601503802
upperback -0.3531134080797972 -2.256651875019488 1.673782574902932
thorax -0.10703728055660755 -1.1318753026032855 3.1520668718250766
lowerneck -25.04480393350803 -1.7803183079463514 -7.85898064450147
upperneck 27.373475341050153 0.01379017816968564 2.193800592714644
head 13.372240709497364 -0.6203866354514642 2.2881154274330977
rclavicle -3.266590829231008E-15 1.6040588762278128E-15
rhumerus -32.08507091715129 -3.775404622679936 -80.90634938843982
rradius 30.593548484621884
rwrist 19.089919294466792
rhand -17.806923173600225 9.31561176870072
rfingers 7.1250199999999255
rthumb 8.45106861779456 -20.453502169834252
lclavicle -6.557791664707866E-15 3.763155177100342E-15
lhumerus -22.380472763239744 -4.016014369871437 91.87566062563995
lradius 62.55978570490429
lwrist 3.2504116595144703
lhand -27.75664933026319 21.708794301221193
lfingers 7.125020000000004
lthumb -1.179438593535993 51.75112371173366
rfemur -27.550258566610253 -1.2469768248162971 19.98686902362329
rtibia 67.69567073454616
rfoot -4.519532852426172 -7.417082830435449
rtoes 3.521285594462282
lfemur -3.0825771747013713 -3.582954055745821 -28.230518081860986
ltibia 21.262330309956994
lfoot -19.713831148431886 2.494157521493082
ltoes 6.985342511620974
227
root 0 0 0 1.9523489007432204 -10.715896598521901 0.8900315593263481
lowerback -0.2659793988565471 -1.7602030877493666 -2.6787281215680974
upperback -0.2952985510346733 -2.303211001090905 1.673038349355316
thorax -0.02172284875844155 -1.158140770480569 3.155090848977122
lowerneck -25.1203585353656 -1.7843736400454913 -7.912940963519099
upperneck 27.522962617495626 0.021160253000020002 2.198425613205295
head 13.427980355265143 -0.617119941379293 2.2994795932246777
rclavicle -2.6716748520052673E-15 1.0950544534334724E-15
rhumerus -32.39743117050091 -3.1052713897531734 -80.27476236611163
rradius 30.218866798320423
rwrist 19.195168056368125
rhand -17.92455665285768 9.321577585396701
rfingers 7.125019999999929
rthumb 8.338720320551113 -20.465133967649386
lclavicle -5.22718364230644E-15 3.3401413882752862E-15
lhumerus -23.004256802649962 -5.834354265453996 91.91326416826229
lradius 63.257375398834846
lwrist 3.8089828888531487
lhand -27.48427328630784 22.093765386096596
lfingers 7.125019999999998
lthumb -0.9196801935286931 52.162395674386104
rfemur -30.542872516179234 0.3360838779543771 18.771836622964834
rtibia 53.476477545414596
rfoot -4.5669205060610665 -9.545923163543854
rtoes -0.42751633134542466
lfemur 2.6262388652168847 -3.871068105817318 -29.516940756652
ltibia 17.825524038200093
lfoot -21.998864710553654 1.5909632175496196
ltoes 2.448038638505297
228
root 0 0 0 1.9733919238777924 -10.746931443751258 0.9033319951581374
lowerback -0.27348248904800654 -1.7806119883898346 -2.6820591155999054
upperback -0.26749130090311335 -2.330395487405116 1.6817654862349798
thorax 0.014791830026242847 -1.1733645333977232 3.166834473243047
lowerneck -25.235227489563226 -1.7864182183217245 -7.927727302895419
upperneck 27.42818060395006 0.030452712163961393 2.2021567373110504
head 13.409702314481374 -0.6078221324365745 2.302113915896617
rclavicle -1.5596757668680904E-15 3.4648987513772087E-16
rhumerus -32.79043185708599 -2.7293190133979297 -79.60729783210805
rradius 29.79056074624039
rwrist 19.39755770739666
rhand -17.96609243043902 9.30051373409453
rfingers 7.125019999999933
rthumb 8.298768329847604 -20.506797695972697
lclavicle -3.2415692147841677E-15 2.7004189572005902E-15
lhumerus -23.029000445680133 -6.798950839328939 91.70135314758936
lradius 63.79535364745119
lwrist 4.192250307822543
lhand -27.314401759941298 22.571949967066168
lfingers 7.125019999999993
lthumb -0.7547004888782434 52.65902606885102
rfemur -32.483991605535465 1.9676958235935054 17.33482599028024
rtibia 41.57947551364237
rfoot -4.273803570325992 -11.202453266439152
rtoes -2.971124288044643
lfemur 6.845954875467106 -4.194019553138186 -30.075057303058614
ltibia 15.69663746692985
lfoot -21.883683405220882 0.264790904082707
ltoes -1.0564481491844582
229
root 0 0 0 1.993591150773706 -10.778187982277766 0.9267991041600746
lowerback -0.2611150803477844 -1.805316859695347 -2.6833131731506232
upperback -0.23902390966766418 -2.3625854411389384 1.7070448287906463
thorax 0.041410681872128485 -1.191333837713732 3.19553618861286
lowerneck -25.48019391162007 -1.7891373697981074 -7.917290065183235
upperneck 27.032366932251684 0.04693428722322457 2.2095379030685853
head 13.306746168383505 -0.5861361922140836 2.2987208536145083
rclavicle 1.9669862222611913E-16 -7.106054374802233E-16
rhumerus -33.304797815758334 -2.570002254524503 -78.8659495905879
rradius 29.293278952008677
rwrist 19.729890097458103
rhand -17.94621356572926 9.221468187917846
rfingers 7.12501999999994
rthumb 8.317488927164693 -20.609495649292775
lclavicle -5.669355343190856E-16 1.922964833801663E-15
lhumerus -22.83902778385678 -7.682000480899971 91.4149989969708
lradius 64.40623236350379
lwrist 4.5146218171056605
lhand -27.21823903036877 23.13515269970877
lfingers 7.125019999999988
lthumb -0.6585216671658767 53.2373372318095
rfemur -33.15431193464575 3.1661493559964473 17.014333243223536
rtibia 33.670380423740745
rfoot -4.617179507369805 -12.072704305887335
rtoes -4.197647866248967
lfemur 12.74027408418509 -4.70502320381297 -30.310166603256615
ltibia 14.230021239258054
lfoot -19.252337152504293 -2.0751260108313616
ltoes -5.372335071184665
230
root 0 0 0 2.0110383758391217 -10.788881774027358 0.959702343043252
lowerback -0.2004520760231201 -1.830676971443547 -2.677868420024515
upperback -0.20544128636267722 -2.3953263009068513 1.762373600154357
thorax 0.04733286221888666 -1.2098203557674658 3.252922210192649
lowerneck -25.880908545875872 -1.787236637506155 -7.8604894410456305
upperneck 26.19415774634588 0.07607645852888001 2.224718626813665
head 13.073185322212293 -0.544435996020958 2.2872501107602212
rclavicle 2.0875881470152647E-15 -1.5535519642801236E-15
rhumerus -33.78353306164172 -2.7446961735692685 -78.29966886775969
rradius 28.882717530299246
rwrist 20.096204053977647
rhand -17.86534665766745 9.102394190242528
rfingers 7.125019999999946
rthumb 8.394630089955609 -20.736383068617656
lclavicle 1.472723689805335E-15 1.3616399399763158E-15
lhumerus -22.673129461166553 -8.368520276237957 91.24686316144978
lradius 64.90622747286832
lwrist 4.67617096686431
lhand -27.22062352992043 23.52368959910067
lfingers 7.125019999999984
lthumb -0.6567763733733045 53.632630325167014
rfemur -33.840194966849495 3.8262597833450673 17.297601930145824
rtibia 29.206140144355675
rfoot -4.831416326537566 -12.12109431583881
rtoes -4.176419521135144
lfemur 19.318434661718495 -5.051776932039891 -29.82238745993859
ltibia 16.052819891442173
lfoot -13.738492572811548 -5.775433518092935
ltoes -10.516384931375601
231
root 0 0 0 2.020277061307928 -10.75155024885095 1.000898254112877
lowerback -0.07974398580217157 -1.8465530690354113 -2.6680428348861533
upperback -0.17648566842242253 -2.4144737391773243 1.851905118080934
thorax 0.0141289026941267 -1.2213643436924637 3.3442385692050793
lowerneck -26.43220877401086 -1.787373143093686 -7.74702351563399
upperneck 24.82823953352663 0.1018314482857191 2.2718651361361815
head 12.679592243328003 -0.4859379172417557 2.27262583808258
rclavicle 3.635032897491604E-15 -2.0604057268594397E-15
rhumerus -34.15828881053577 -3.2444241085929724 -77.98334493021245
rradius 28.608555758792452
rwrist 20.4337620422856
rhand -17.736928616699004 8.975774489186254
rfingers 7.125019999999952
rthumb 8.517793147957828 -20.851724067630578
lclavicle 1.915944624048861E-15 8.394578122098597E-16
lhumerus -22.702660350606635 -8.731885281790232 91.23391371958098
lradius 65.10169078114629
lwrist 4.729765089708556
lhand -27.228752640786883 23.61511595826448
lfingers 7.125019999999983
lthumb -0.6636993518660486 53.72535920407385
rfemur -35.323732085087116 4.126289429873388 18.048381613581398
rtibia 26.806591980482956
rfoot -4.808417869703639 -11.7643482277408
rtoes -2.4158188472261424
lfemur 21.013014769488528 -4.253829627042364 -27.664345780736696
ltibia 25.61731244571908
lfoot -6.667298809257556 -10.69616549556138
ltoes -14.890438317880378
232
root 0 0 0 1.9229447053624231 -10.48009634509794 1.0119782770962713
lowerback 0.18684047044526797 -1.7610917359890803 -2.643403158168686
upperback -0.2771913252059185 -2.2913034087677318 2.0075097334709104
thorax -0.25329578715443957 -1.1578791602386955 3.496920588757423
lowerneck -26.855953879180642 -1.808415303492523 -7.480059220718649
upperneck 22.511220453411045 0.055588722514243294 2.425634892177625
head 11.951246435203183 -0.4318128388965222 2.256982881243567
rclavicle 3.779459409767049E-15 -1.9125849650232224E-15
rhumerus -34.46613501033298 -4.294358296735037 -77.90506465073595
rradius 28.427571005527046
rwrist 20.782997478886323
rhand -17.512538380470346 8.850919230649954
rfingers 7.125019999999955
rthumb 8.735325759494298 -20.946881582380637
lclavicle -4.765301170652143E-16 8.011128525713802E-16
lhumerus -23.096769798211522 -8.028966510497588 91.45987558784793
lradius 64.47441497449051
lwrist 4.602593699693139
lhand -27.137953572078054 23.07960230241699
lfingers 7.125019999999987
lthumb -0.5809975085326782 53.187438606784305
rfemur -34.95281618878876 5.161688810653667 23.915302914156022
rtibia 23.504918877669496
rfoot -4.700284429541883 -10.294753464757237
rtoes 6.238371091227162
lfemur 8.200912727725488 -1.853922556813176 -20.551034659371478
ltibia 43.43807655709192
lfoot 6.930014129925032 -16.30724068517224
ltoes -15.139699623940626
